<?xml version="1.0" encoding="UTF-8" standalone="no"?>
<svg
   xmlns:dc="http://purl.org/dc/elements/1.1/"
   xmlns:cc="http://creativecommons.org/ns#"
   xmlns:rdf="http://www.w3.org/1999/02/22-rdf-syntax-ns#"
   xmlns:svg="http://www.w3.org/2000/svg"
   xmlns="http://www.w3.org/2000/svg"
   viewBox="0 0 899.12872 112.08"
   height="112.08"
   width="899.12872"
   xml:space="preserve"
   version="1.1"
   id="svg2"><metadata
     id="metadata8"><rdf:RDF><cc:Work
         rdf:about=""><dc:format>image/svg+xml</dc:format><dc:type
           rdf:resource="http://purl.org/dc/dcmitype/StillImage" /></cc:Work></rdf:RDF></metadata><defs
     id="defs6" /><g
     transform="matrix(1.25,0,0,-1.25,0,112.08)"
     id="g10"><g
       id="g12"><path
         id="path14"
         style="fill:#82782b;fill-opacity:1;fill-rule:nonzero;stroke:none"
         d="M 0,0 722,0 722,90 0,90 0,0 Z" /></g><g
       id="text16"
       style="font-variant:normal;font-weight:bold;font-size:35.8655014px;font-family:'Fira Sans';-inkscape-font-specification:FiraSans-Bold;writing-mode:lr-tb;fill:#000000;fill-opacity:1;fill-rule:nonzero;stroke:none"
       transform="matrix(1,0,0,-1,29.888,20.898)"><path
         id="path33"
         style=""
         d="m 12.373598,-25.464506 c -6.9937728,0 -11.1900365,4.913574 -11.1900365,13.019177 0,8.2849308 4.1962637,13.05504252 11.1900365,13.05504252 7.029638,0 11.225902,-4.91357372 11.225902,-13.05504252 0,-8.284931 -4.196264,-13.019177 -11.225902,-13.019177 z m 0,4.30386 c 3.335492,0 5.057036,2.438854 5.057036,8.715317 0,6.3123283 -1.685679,8.7511824 -5.057036,8.7511824 -3.2278951,0 -5.0211702,-2.4388541 -5.0211702,-8.7511824 0,-6.276463 1.7215441,-8.715317 5.0211702,-8.715317 z" /><path
         id="path35"
         style=""
         d="m 38.160892,-19.654295 c -2.367123,0 -4.196264,1.004234 -5.810211,2.86924 l -0.394521,-2.259526 -4.949439,0 0,19.044581 5.666749,0 0,-13.019177 c 1.004234,-1.578082 2.044334,-2.47472 3.299627,-2.47472 1.11183,0 1.793275,0.537983 1.793275,2.546451 l 0,12.947446 5.666749,0 0,-13.915815 c 0,-3.622415 -1.972603,-5.73848 -5.272229,-5.73848 z" /><path
         id="path37"
         style=""
         d="m 59.106346,-27.221916 0,9.360896 c -1.147696,-1.11183 -2.689913,-1.793275 -4.411457,-1.793275 -4.913574,0 -7.89041,4.196264 -7.89041,10.0782061 0,6.1688663 2.402988,10.18580242 7.244831,10.18580242 2.582316,0 4.339726,-1.25529255 5.415691,-2.83337462 L 59.751925,0 l 5.02117,0 0,-26.612202 -5.666749,-0.609714 z m -3.263761,23.6712314 c -1.865006,0 -3.156164,-1.2552926 -3.156164,-5.9895388 0,-4.2679946 1.43462,-5.9895386 3.478954,-5.9895386 1.219427,0 2.080199,0.609713 2.940971,1.613947 l 0,8.2490658 c -0.896638,1.3987545 -1.936737,2.1160646 -3.263761,2.1160646 z" /><path
         id="path39"
         style=""
         d="m 79.549683,-19.582564 c -2.187796,0 -4.052802,1.578082 -4.913574,4.196264 l -0.466251,-3.658281 -4.949439,0 0,19.044581 5.666749,0 0,-9.5043579 c 0.609713,-2.8692401 1.613947,-4.5907841 3.945205,-4.5907841 0.645579,0 1.111831,0.107596 1.721544,0.251058 l 0.896638,-5.487421 c -0.609714,-0.179328 -1.183562,-0.251059 -1.900872,-0.251059 z" /><path
         id="path41"
         style=""
         d="m 98.020409,-5.5232872 0,-7.3882938 c 0,-4.411456 -2.367123,-6.742714 -7.89041,-6.742714 -2.15193,0 -4.770112,0.502117 -7.1731,1.398755 l 1.291158,3.730012 c 1.900871,-0.645579 3.765877,-1.004234 4.985304,-1.004234 2.331258,0 3.227896,0.681444 3.227896,2.940971 l 0,0.824907 -1.936737,0 c -5.774346,0 -8.93051,2.2595261 -8.93051,6.4199243 0,3.4789536 2.402988,5.95367322 6.204731,5.95367322 2.259527,0 4.375592,-0.75317553 5.738481,-2.83337462 0.896637,1.86500609 2.367123,2.54645061 4.590784,2.72577812 L 99.311567,-3.1920296 C 98.41493,-3.5148191 98.020409,-4.0528017 98.020409,-5.5232872 Z m -8.571855,2.0801991 c -1.398754,0 -2.223661,-0.8966376 -2.223661,-2.4029886 0,-1.9008716 1.255293,-2.7975091 3.837609,-2.7975091 l 1.398755,0 0,3.4072226 c -0.681445,1.1118305 -1.721544,1.7932751 -3.012703,1.7932751 z" /><path
         id="path43"
         style=""
         d="m 124.9554,0 5.88195,0 0,-24.854792 -5.88195,0 0,9.611954 -7.46002,0 0,-9.611954 -5.88194,0 0,24.854792 5.88194,0 0,-10.652054 7.46002,0 0,10.652054 z" /><path
         id="path45"
         style=""
         d="m 146.54643,-19.654295 c -2.36713,0 -4.19627,1.004234 -5.81021,2.86924 l -0.39453,-2.259526 -4.94943,0 0,19.044581 5.66674,0 0,-13.019177 c 1.00424,-1.578082 2.04434,-2.47472 3.29963,-2.47472 1.11183,0 1.79328,0.537983 1.79328,2.546451 l 0,12.947446 5.66675,0 0,-13.915815 c 0,-3.622415 -1.97261,-5.73848 -5.27223,-5.73848 z" /><path
         id="path47"
         style=""
         d="m 161.50234,-29.947694 -7.81868,4.734247 1.54222,2.905105 8.50012,-3.407223 -2.22366,-4.232129 z m 0.25106,10.903113 -5.66675,0 0,19.044581 5.66675,0 0,-19.044581 z" /><path
         id="path49"
         style=""
         d="m 171.86748,-27.221916 -5.66675,0.609714 0,26.612202 5.66675,0 0,-27.221916 z m 11.76388,8.177335 -5.77434,0 -5.81022,8.643586 L 177.71355,0 l 6.38406,0 -6.24059,-10.687919 5.77434,-8.356662 z" /><path
         id="path51"
         style=""
         d="m 211.35539,-19.044581 -5.77434,0 -3.51482,14.7407208 -3.37136,-14.7407208 -6.16887,0 L 198.659,0 l 6.70685,0 5.98954,-19.044581 z" /><path
         id="path53"
         style=""
         d="m 229.61093,-9.8988784 c 0,-6.1688666 -3.33549,-9.7554166 -8.78705,-9.7554166 -5.77435,0 -8.89464,4.519053 -8.89464,10.2216681 0,5.9536733 3.22789,10.04234042 9.57608,10.04234042 3.08444,0 5.52329,-1.14769604 7.42416,-2.65404712 l -2.33125,-3.1561641 c -1.64982,1.147696 -3.01271,1.6856786 -4.55492,1.6856786 -2.33126,0 -3.94521,-0.9325031 -4.30386,-4.3397257 l 11.76388,0 c 0.0717,-0.573848 0.1076,-1.4346201 0.1076,-2.0443336 z m -5.55915,-1.3628886 -6.3482,0 c 0.28693,-3.443089 1.36289,-4.62665 3.26376,-4.62665 2.25953,0 3.04857,1.793275 3.08444,4.375591 l 0,0.251059 z" /><path
         id="path55"
         style=""
         d="m 248.54791,-19.654295 c -4.80598,0 -7.78281,2.546451 -7.78281,5.810211 0,2.940972 1.865,4.8777086 5.63088,5.9536737 3.44309,0.9683685 4.01694,1.362889 4.01694,2.6540471 0,1.147696 -1.0401,1.7932751 -2.76165,1.7932751 -1.865,0 -3.62241,-0.7531756 -5.05703,-1.8650061 l -2.76165,3.0844331 c 1.86501,1.68567858 4.66252,2.83337462 7.96215,2.83337462 4.73424,0 8.46425,-2.33125762 8.46425,-6.27646272 0,-3.4072227 -2.11606,-4.9853048 -5.88194,-6.0612698 -3.40722,-1.004234 -3.90934,-1.43462 -3.90934,-2.438854 0,-0.860772 0.75318,-1.43462 2.29539,-1.43462 1.64982,0 3.2279,0.537982 4.69838,1.470485 l 2.0802,-3.192029 c -1.75741,-1.43462 -4.23213,-2.331258 -6.99377,-2.331258 z" /><path
         id="path57"
         style=""
         d="m 269.20643,-4.5190532 c -0.75317,0.4662515 -1.39875,0.645579 -2.04433,0.645579 -1.18356,0 -1.79328,-0.645579 -1.79328,-2.4747195 l 0,-8.7511823 3.76588,0 0.60971,-3.945205 -4.37559,0 0,-4.770112 -5.66675,0.645579 0,4.124533 -2.68991,0 0,3.945205 2.68991,0 0,8.8229133 c 0,4.4831876 2.04434,6.85031072 6.2406,6.88617622 1.72154,0 3.73001,-0.50211702 5.16463,-1.50635106 l -1.90087,-3.62241566 z" /><path
         id="path59"
         style=""
         d="m 289.07592,-19.044581 -5.66675,0 0,13.2343698 c -0.8249,1.43462 -1.90087,2.2236611 -3.08443,2.2236611 -1.18356,0 -1.82914,-0.5738481 -1.82914,-2.5105851 l 0,-12.9474458 -5.66675,0 0,13.6647558 c 0,3.6941466 1.75741,5.98953872 5.30809,5.98953872 2.51059,0 4.37559,-1.00423404 5.77435,-3.01270212 L 284.16235,0 l 4.91357,0 0,-19.044581 z" /><path
         id="path61"
         style=""
         d="m 304.92848,-27.221916 0,9.360896 c -1.14769,-1.11183 -2.68991,-1.793275 -4.41146,-1.793275 -4.91357,0 -7.89041,4.196264 -7.89041,10.0782061 0,6.1688663 2.40299,10.18580242 7.24484,10.18580242 2.58231,0 4.33972,-1.25529255 5.41569,-2.83337462 L 305.57406,0 l 5.02117,0 0,-26.612202 -5.66675,-0.609714 z m -3.26376,23.6712314 c -1.86501,0 -3.15616,-1.2552926 -3.15616,-5.9895388 0,-4.2679946 1.43462,-5.9895386 3.47895,-5.9895386 1.21943,0 2.0802,0.609713 2.94097,1.613947 l 0,8.2490658 c -0.89664,1.3987545 -1.93674,2.1160646 -3.26376,2.1160646 z" /><path
         id="path63"
         style=""
         d="m 323.2916,-19.654295 c -5.81021,0 -9.32503,4.016936 -9.32503,10.1140716 0,6.4199248 3.55069,10.14993692 9.32503,10.14993692 5.81022,0 9.32503,-4.01693612 9.32503,-10.11407142 0,-6.4199251 -3.51481,-10.1499371 -9.32503,-10.1499371 z m 0,4.160398 c 2.2954,0 3.44309,1.75741 3.44309,5.9895391 0,4.1245327 -1.14769,5.9536733 -3.44309,5.9536733 -2.29539,0 -3.44308,-1.7574096 -3.44308,-5.9895388 0,-4.1245326 1.14769,-5.9536736 3.44308,-5.9536736 z" /><path
         id="path65"
         style=""
         d="m 351.41015,-19.044581 -5.77434,0 -3.51482,14.7407208 -3.37136,-14.7407208 -6.16886,0 6.133,19.044581 6.70685,0 5.98953,-19.044581 z" /><path
         id="path67"
         style=""
         d="m 364.57281,-19.654295 c -2.36712,0 -4.19626,1.004234 -5.81021,2.86924 l -0.39452,-2.259526 -4.94944,0 0,19.044581 5.66675,0 0,-13.019177 c 1.00423,-1.578082 2.04433,-2.47472 3.29962,-2.47472 1.11183,0 1.79328,0.537983 1.79328,2.546451 l 0,12.947446 5.66675,0 0,-13.915815 c 0,-3.622415 -1.97261,-5.73848 -5.27223,-5.73848 z" /><path
         id="path69"
         style=""
         d="m 383.76085,-21.913821 5.05704,-4.913574 -2.00847,-2.331258 -4.77011,3.263761 -4.77011,-3.263761 -2.04433,2.331258 5.0929,4.913574 3.44308,0 z m 6.95791,12.0149426 c 0,-6.1688666 -3.33549,-9.7554166 -8.78705,-9.7554166 -5.77434,0 -8.89464,4.519053 -8.89464,10.2216681 0,5.9536733 3.22789,10.04234042 9.57609,10.04234042 3.08443,0 5.52329,-1.14769604 7.42416,-2.65404712 l -2.33126,-3.1561641 c -1.64981,1.147696 -3.0127,1.6856786 -4.55492,1.6856786 -2.33126,0 -3.9452,-0.9325031 -4.30386,-4.3397257 l 11.76389,0 c 0.0717,-0.573848 0.10759,-1.4346201 0.10759,-2.0443336 z m -5.55915,-1.3628886 -6.34819,0 c 0.28692,-3.443089 1.36288,-4.62665 3.26376,-4.62665 2.25952,0 3.04856,1.793275 3.08443,4.375591 l 0,0.251059 z" /></g><g
       id="text20"
       style="font-variant:normal;font-weight:bold;font-size:14.34619999px;font-family:'Fira Sans';-inkscape-font-specification:FiraSans-Bold;writing-mode:lr-tb;fill:#000000;fill-opacity:1;fill-rule:nonzero;stroke:none"
       transform="matrix(1,0,0,-1,591.012,56.763)"><path
         id="path72"
         style=""
         d="m 6.168866,0 2.4962388,0 -2.9983558,-9.9419166 -2.8548938,0 L -0.1865006,0 l 2.438854,0 0.502117,-2.1375838 2.9122786,0 L 6.168866,0 Z m -3.012702,-3.8447816 1.0472726,-4.3899372 1.0472726,4.3899372 -2.0945452,0 z" /><path
         id="path74"
         style=""
         d="m 15.680396,-7.6178322 -2.266699,0 0,5.2937478 c -0.329963,0.573848 -0.760349,0.8894644 -1.233773,0.8894644 -0.473425,0 -0.731657,-0.2295392 -0.731657,-1.004234 l 0,-5.1789782 -2.2666992,0 0,5.4659022 c 0,1.4776586 0.7029638,2.3958154 2.1232372,2.3958154 1.004234,0 1.750237,-0.4016936 2.309739,-1.2050808 L 13.714967,0 l 1.965429,0 0,-7.6178322 z" /><path
         id="path76"
         style=""
         d="m 21.476261,-1.8076212 c -0.30127,0.1865006 -0.559502,0.2582316 -0.817734,0.2582316 -0.473424,0 -0.71731,-0.2582316 -0.71731,-0.9898878 l 0,-3.5004728 1.506351,0 0.243886,-1.578082 -1.750237,0 0,-1.9080446 -2.266699,0.2582316 0,1.649813 -1.075965,0 0,1.578082 1.075965,0 0,3.5291652 c 0,1.793275 0.817733,2.7401242 2.496239,2.7544704 0.688617,0 1.492004,-0.2008468 2.065852,-0.6025404 l -0.760348,-1.4489662 z" /><path
         id="path78"
         style=""
         d="m 26.153124,-7.8617176 c -2.324085,0 -3.730012,1.6067744 -3.730012,4.0456284 0,2.5679698 1.420273,4.0599746 3.730012,4.0599746 2.324084,0 3.730012,-1.6067744 3.730012,-4.0456284 0,-2.5679698 -1.405928,-4.0599746 -3.730012,-4.0599746 z m 0,1.6641592 c 0.918156,0 1.377235,0.7029638 1.377235,2.3958154 0,1.649813 -0.459079,2.3814692 -1.377235,2.3814692 -0.918157,0 -1.377236,-0.7029638 -1.377236,-2.3958154 0,-1.649813 0.459079,-2.3814692 1.377236,-2.3814692 z" /><path
         id="path80"
         style=""
         d="m 35.363383,-7.8330252 c -0.875119,0 -1.621121,0.6312328 -1.96543,1.6785054 l -0.1865,-1.4633124 -1.979776,0 0,7.6178322 2.2667,0 0,-3.801743 c 0.243885,-1.147696 0.645579,-1.8363136 1.578082,-1.8363136 0.258231,0 0.444732,0.043039 0.688617,0.1004234 l 0.358655,-2.1949686 c -0.243885,-0.071731 -0.473424,-0.1004234 -0.760348,-0.1004234 z" /><path
         id="path82"
         style=""
         d="m 39.52378,-7.8617176 c -1.922391,0 -3.113125,1.0185802 -3.113125,2.3240844 0,1.1763884 0.746002,1.9510832 2.252353,2.3814692 1.377235,0.3873474 1.606774,0.5451556 1.606774,1.0616188 0,0.4590784 -0.416039,0.71731 -1.104657,0.71731 -0.746002,0 -1.448966,-0.3012702 -2.022814,-0.7460024 l -1.104658,1.2337732 c 0.746003,0.6742714 1.865006,1.1333498 3.184857,1.1333498 1.893698,0 3.385703,-0.932503 3.385703,-2.510585 0,-1.362889 -0.846426,-1.9941218 -2.352777,-2.4245078 C 38.892547,-5.092901 38.6917,-5.2650554 38.6917,-5.666749 c 0,-0.3443088 0.301271,-0.573848 0.918157,-0.573848 0.659925,0 1.291158,0.215193 1.879352,0.5881942 l 0.83208,-1.2768118 c -0.702964,-0.573848 -1.692852,-0.932503 -2.797509,-0.932503 z" /><path
         id="path84"
         style=""
         d="m 46.036955,-10.888766 -2.2667,0.243886 0,10.64488 2.2667,0 0,-10.888766 z m 4.705553,3.2709338 -2.309738,0 L 46.108686,-4.160398 48.375385,0 50.929009,0 48.43277,-4.2751676 50.742508,-7.6178322 Z" /><path
         id="path86"
         style=""
         d="m 56.538374,-10.286225 -0.875119,-1.692852 -3.127471,1.893698 0.616886,1.1620426 3.385704,-1.3628886 z m 1.563735,6.3266738 c 0,-2.4675464 -1.334196,-3.9021664 -3.514819,-3.9021664 -2.309738,0 -3.557857,1.8076212 -3.557857,4.088667 0,2.3814692 1.291158,4.016936 3.830435,4.016936 1.233773,0 2.209315,-0.4590784 2.969664,-1.0616188 L 56.897029,-2.080199 c -0.659926,0.4590784 -1.205081,0.6742714 -1.821968,0.6742714 -0.932503,0 -1.578082,-0.3730012 -1.721544,-1.7358902 l 4.705554,0 c 0.02869,-0.2295392 0.04304,-0.573848 0.04304,-0.8177334 z m -2.223661,-0.5451556 -2.539277,0 c 0.11477,-1.3772352 0.545156,-1.8506598 1.305504,-1.8506598 0.903811,0 1.219427,0.71731 1.233773,1.7502364 l 0,0.1004234 z" /><path
         id="path88"
         style=""
         d="m 68.187487,-11.663461 -1.908045,1.305505 -1.908044,-1.305505 -0.817734,0.932503 2.037161,1.9654298 1.377235,0 2.03716,-1.9654298 -0.817733,-0.932503 z m -1.893698,3.8017434 c -2.281046,0 -3.730012,1.6928516 -3.730012,4.1173594 0,2.4101616 1.43462,3.9882436 3.77305,3.9882436 1.047273,0 1.865006,-0.3443088 2.56797,-0.9038106 l -1.004234,-1.4059276 c -0.530809,0.3443088 -0.903811,0.5164632 -1.448966,0.5164632 -0.903811,0 -1.506351,-0.5164632 -1.506351,-2.2093148 0,-1.7071978 0.559502,-2.367123 1.535043,-2.367123 0.516463,0 0.961196,0.1721544 1.448966,0.5451556 l 0.975542,-1.3485428 c -0.731656,-0.6168866 -1.54939,-0.932503 -2.611008,-0.932503 z" /><path
         id="path90"
         style=""
         d="m 73.882932,-1.8076212 c -0.30127,0.1865006 -0.559501,0.2582316 -0.817733,0.2582316 -0.473425,0 -0.71731,-0.2582316 -0.71731,-0.9898878 l 0,-3.5004728 1.506351,0 0.243885,-1.578082 -1.750236,0 0,-1.9080446 -2.2667,0.2582316 0,1.649813 -1.075965,0 0,1.578082 1.075965,0 0,3.5291652 c 0,1.793275 0.817734,2.7401242 2.496239,2.7544704 0.688618,0 1.492005,-0.2008468 2.065853,-0.6025404 l -0.760349,-1.4489662 z" /><path
         id="path92"
         style=""
         d="m 81.902452,-3.9595512 c 0,-2.4675464 -1.334197,-3.9021664 -3.514819,-3.9021664 -2.309738,0 -3.557858,1.8076212 -3.557858,4.088667 0,2.3814692 1.291158,4.016936 3.830436,4.016936 1.233773,0 2.209315,-0.4590784 2.969663,-1.0616188 L 80.697371,-2.080199 c -0.659925,0.4590784 -1.205081,0.6742714 -1.821967,0.6742714 -0.932503,0 -1.578082,-0.3730012 -1.721544,-1.7358902 l 4.705553,0 c 0.02869,-0.2295392 0.04304,-0.573848 0.04304,-0.8177334 z m -2.223661,-0.5451556 -2.539277,0 c 0.114769,-1.3772352 0.545155,-1.8506598 1.305504,-1.8506598 0.90381,0 1.219427,0.71731 1.233773,1.7502364 l 0,0.1004234 z" /><path
         id="path94"
         style=""
         d="m 87.669629,-7.8617176 c -0.946849,0 -1.678505,0.4016936 -2.324084,1.147696 l -0.157808,-0.9038106 -1.979776,0 0,7.6178322 2.2667,0 0,-5.2076706 c 0.401693,-0.6312328 0.817733,-0.9898878 1.31985,-0.9898878 0.444732,0 0.71731,0.215193 0.71731,1.0185802 l 0,5.1789782 2.2667,0 0,-5.5663256 c 0,-1.4489662 -0.789041,-2.295392 -2.108892,-2.295392 z" /><path
         id="path96"
         style=""
         d="m 93.651993,-11.979077 -3.127472,1.893698 0.616887,1.1620426 3.400049,-1.3628886 -0.889464,-1.692852 z m 0.100423,4.3612448 -2.266699,0 0,7.6178322 2.266699,0 0,-7.6178322 z" /></g><g
       id="text24"
       style="font-variant:normal;font-weight:bold;font-size:14.34619999px;font-family:'Fira Sans';-inkscape-font-specification:FiraSans-Bold;writing-mode:lr-tb;fill:#000000;fill-opacity:1;fill-rule:nonzero;stroke:none"
       transform="matrix(1,0,0,-1,591.012,38.83)"><path
         id="path99"
         style=""
         d="m 3.4287418,-9.898878 c -1.291158,0 -2.367123,0.4447322 -3.2709336,1.3055042 l 1.1190036,1.219427 c 0.573848,-0.5595018 1.1763884,-0.8464258 1.8936984,-0.8464258 0.789041,0 1.291158,0.4160398 1.291158,1.1190036 0,0.8033872 -0.5308094,1.2624656 -1.3915814,1.2624656 l -0.5595018,0 -0.2438854,1.5637358 0.8033872,0 c 1.0185802,0 1.578082,0.3730012 1.578082,1.3915814 0,0.8894644 -0.6168866,1.4059276 -1.506351,1.4059276 -0.7603486,0 -1.3341966,-0.286924 -1.9797756,-0.932503 l -1.219427,1.1907346 c 0.7603486,0.9181568 1.865006,1.4633124 3.3283184,1.4633124 2.3958154,0 3.7013196,-1.362889 3.7013196,-2.9840096 0,-1.5350434 -1.004234,-2.2523534 -2.2093148,-2.3814692 1.1907346,-0.3443088 1.8936984,-1.1333498 1.8936984,-2.3097382 0,-1.362889 -1.1333498,-2.4675464 -3.227895,-2.4675464 z" /><path
         id="path101"
         style=""
         d="m 12.940272,-9.6980312 -2.022814,0 -3.2709335,1.9797756 0.9898878,1.506351 2.0801987,-1.2768118 0,7.4887164 2.223661,0 0,-9.6980312 z" /><path
         id="path103"
         style=""
         d="m 15.838205,-2.3527768 c -0.731656,0 -1.305504,0.5881942 -1.305504,1.291158 0,0.71731 0.573848,1.3055042 1.305504,1.3055042 0.71731,0 1.291158,-0.5881942 1.291158,-1.3055042 0,-0.7029638 -0.573848,-1.291158 -1.291158,-1.291158 z" /><path
         id="path105"
         style=""
         d="m 26.310931,-7.8617176 c -0.789041,0 -1.563735,0.4016936 -2.008468,1.0185802 l 0,-4.0456286 -2.266699,0.243886 0,10.64488 2.008468,0 0.114769,-0.7316562 c 0.459079,0.6168866 1.147696,0.9755416 1.994122,0.9755416 1.893699,0 3.027048,-1.6928516 3.027048,-4.0456284 0,-2.5536236 -0.989887,-4.0599746 -2.86924,-4.0599746 z m -0.803387,6.45579 c -0.502117,0 -0.918157,-0.2725778 -1.205081,-0.7460024 l 0,-3.156164 c 0.329963,-0.5595018 0.760349,-0.8894644 1.305505,-0.8894644 0.702963,0 1.219427,0.4590784 1.219427,2.3958154 0,1.7789288 -0.545156,2.3958154 -1.319851,2.3958154 z" /><path
         id="path107"
         style=""
         d="m 33.756608,-8.7655282 2.022814,-1.9654298 -0.803387,-0.932503 -1.908045,1.305505 -1.908044,-1.305505 -0.817734,0.932503 2.037161,1.9654298 1.377235,0 z m -0.989888,2.6110084 -0.186501,-1.4633124 -1.979775,0 0,7.6178322 2.266699,0 0,-3.801743 c 0.243886,-1.147696 0.645579,-1.8363136 1.578082,-1.8363136 0.258232,0 0.444733,0.043039 0.688618,0.1004234 l 0.358655,-2.1949686 c -0.243885,-0.071731 -0.473425,-0.1004234 -0.760349,-0.1004234 -0.875118,0 -1.62112,0.6312328 -1.965429,1.6785054 z" /><path
         id="path109"
         style=""
         d="m 42.852098,-3.9595512 c 0,-2.4675464 -1.334197,-3.9021664 -3.514819,-3.9021664 -2.309738,0 -3.557858,1.8076212 -3.557858,4.088667 0,2.3814692 1.291158,4.016936 3.830436,4.016936 1.233773,0 2.209315,-0.4590784 2.969663,-1.0616188 L 41.647017,-2.080199 c -0.659925,0.4590784 -1.205081,0.6742714 -1.821967,0.6742714 -0.932503,0 -1.578082,-0.3730012 -1.721544,-1.7358902 l 4.705553,0 c 0.02869,-0.2295392 0.04304,-0.573848 0.04304,-0.8177334 z m -2.223661,-0.5451556 -2.539277,0 c 0.114769,-1.3772352 0.545155,-1.8506598 1.305504,-1.8506598 0.90381,0 1.219427,0.71731 1.233773,1.7502364 l 0,0.1004234 z" /><path
         id="path111"
         style=""
         d="m 49.523082,-7.6178322 -5.767172,0 0,1.7071978 3.156164,0 -3.457435,4.30386 0,1.6067744 5.939327,0 0.200847,-1.721544 -3.514819,0 3.443088,-4.30386 0,-1.5924282 z" /><path
         id="path113"
         style=""
         d="m 55.204179,-7.8617176 c -0.946849,0 -1.678505,0.4016936 -2.324084,1.147696 l -0.157809,-0.9038106 -1.979775,0 0,7.6178322 2.266699,0 0,-5.2076706 c 0.401694,-0.6312328 0.817734,-0.9898878 1.319851,-0.9898878 0.444732,0 0.71731,0.215193 0.71731,1.0185802 l 0,5.1789782 2.266699,0 0,-5.5663256 c 0,-1.4489662 -0.789041,-2.295392 -2.108891,-2.295392 z" /><path
         id="path115"
         style=""
         d="m 65.074363,-2.2093148 0,-2.9553172 c 0,-1.7645826 -0.946849,-2.6970856 -3.156164,-2.6970856 -0.860772,0 -1.908045,0.2008468 -2.86924,0.5595018 l 0.516463,1.4920048 c 0.760349,-0.2582316 1.506351,-0.4016936 1.994122,-0.4016936 0.932503,0 1.291158,0.2725778 1.291158,1.1763884 l 0,0.3299626 -0.774695,0 c -2.309738,0 -3.572204,0.9038106 -3.572204,2.5679698 0,1.3915814 0.961196,2.3814692 2.481893,2.3814692 0.903811,0 1.750236,-0.3012702 2.295392,-1.1333498 0.358655,0.7460024 0.946849,1.0185802 1.836314,1.0903112 l 0.473424,-1.4776586 c -0.358655,-0.1291158 -0.516463,-0.3443088 -0.516463,-0.932503 z m -3.428742,0.8320796 c -0.559502,0 -0.889464,-0.358655 -0.889464,-0.9611954 0,-0.7603486 0.502117,-1.1190036 1.535043,-1.1190036 l 0.559502,0 0,1.362889 c -0.272578,0.4447322 -0.688618,0.71731 -1.205081,0.71731 z" /><path
         id="path117"
         style=""
         d="m 72.993467,-9.898878 c -1.448967,0 -2.553624,0.6599252 -3.328319,1.6785054 l 1.348543,1.0616188 c 0.559502,-0.6886176 1.047273,-1.004234 1.750236,-1.004234 0.760349,0 1.24812,0.4734246 1.24812,1.2624656 0,1.2050808 -0.760349,2.080199 -4.016936,5.2937478 l 0,1.6067744 6.312328,0 0.229539,-1.7358902 -3.973897,0 c 3.027048,-2.7544704 3.77305,-3.8878202 3.77305,-5.3941712 0,-1.506351 -1.176388,-2.7688166 -3.342664,-2.7688166 z" /><path
         id="path119"
         style=""
         d="m 81.199492,-9.898878 c -2.381469,0 -3.658281,1.8076212 -3.658281,5.0642086 0,3.2422412 1.276812,5.0785548 3.658281,5.0785548 2.381469,0 3.658281,-1.8363136 3.658281,-5.0785548 0,-3.2565874 -1.276812,-5.0642086 -3.658281,-5.0642086 z m 0,1.6785054 c 0.932503,0 1.334197,0.7460024 1.334197,3.3857032 0,2.6253546 -0.401694,3.4000494 -1.334197,3.4000494 -0.946849,0 -1.334196,-0.8320796 -1.334196,-3.4000494 0,-2.5679698 0.387347,-3.3857032 1.334196,-3.3857032 z" /><path
         id="path121"
         style=""
         d="m 90.725366,-9.6980312 -2.022815,0 -3.270933,1.9797756 0.989888,1.506351 2.080199,-1.2768118 0,7.4887164 2.223661,0 0,-9.6980312 z" /><path
         id="path123"
         style=""
         d="m 96.851195,-6.527521 c -0.731656,0 -1.448966,0.2725778 -2.051506,0.9038106 0.129115,-1.7071978 0.832079,-2.654047 1.92239,-2.654047 0.502117,0 0.918157,0.143462 1.319851,0.3730012 l 0.832079,-1.3485428 c -0.559501,-0.3730012 -1.291158,-0.645579 -2.209314,-0.645579 -2.625355,0 -4.217783,2.1806224 -4.217783,5.4659022 0,2.7831628 1.104657,4.6768612 3.672627,4.6768612 2.166276,0 3.514819,-1.578082 3.514819,-3.5578576 0,-2.0515066 -1.190735,-3.2135488 -2.783163,-3.2135488 z m -0.702964,5.1502858 c -0.975541,0 -1.31985,-0.8033872 -1.348542,-2.8262014 0.416039,-0.4877708 0.90381,-0.7603486 1.420273,-0.7603486 0.746003,0 1.147696,0.430386 1.147696,1.6785054 0,1.147696 -0.401693,1.9080446 -1.219427,1.9080446 z" /></g><g
       id="text28"
       style="font-variant:normal;font-weight:bold;font-size:14.34619999px;font-family:'Fira Sans';-inkscape-font-specification:FiraSans-Bold;writing-mode:lr-tb;fill:#000000;fill-opacity:1;fill-rule:nonzero;stroke:none"
       transform="matrix(1,0,0,-1,591.012,20.898)"><path
         id="path126"
         style=""
         d="m 5.4802484,-9.6980312 -2.0228142,0 -3.2709336,1.9797756 0.9898878,1.506351 2.080199,-1.2768118 0,7.4887164 2.223661,0 0,-9.6980312 z" /><path
         id="path128"
         style=""
         d="m 11.606076,-6.527521 c -0.731656,0 -1.448966,0.2725778 -2.0515069,0.9038106 0.1291158,-1.7071978 0.8320799,-2.654047 1.9223909,-2.654047 0.502117,0 0.918157,0.143462 1.31985,0.3730012 l 0.83208,-1.3485428 c -0.559502,-0.3730012 -1.291158,-0.645579 -2.209315,-0.645579 -2.6253545,0 -4.2177827,2.1806224 -4.2177827,5.4659022 0,2.7831628 1.1046574,4.6768612 3.6726277,4.6768612 2.166276,0 3.514819,-1.578082 3.514819,-3.5578576 0,-2.0515066 -1.190735,-3.2135488 -2.783163,-3.2135488 z m -0.702964,5.1502858 c -0.9755417,0 -1.3198505,-0.8033872 -1.3485429,-2.8262014 0.4160398,-0.4877708 0.9038109,-0.7603486 1.4202739,-0.7603486 0.746002,0 1.147696,0.430386 1.147696,1.6785054 0,1.147696 -0.401694,1.9080446 -1.219427,1.9080446 z" /><path
         id="path130"
         style=""
         d="m 16.469437,-2.3527768 c -0.731656,0 -1.305504,0.5881942 -1.305504,1.291158 0,0.71731 0.573848,1.3055042 1.305504,1.3055042 0.71731,0 1.291158,-0.5881942 1.291158,-1.3055042 0,-0.7029638 -0.573848,-1.291158 -1.291158,-1.291158 z" /><path
         id="path132"
         style=""
         d="m 21.619723,-9.898878 c -1.291158,0 -2.367123,0.4447322 -3.270934,1.3055042 l 1.119004,1.219427 c 0.573848,-0.5595018 1.176388,-0.8464258 1.893698,-0.8464258 0.789041,0 1.291158,0.4160398 1.291158,1.1190036 0,0.8033872 -0.530809,1.2624656 -1.391581,1.2624656 l -0.559502,0 -0.243885,1.5637358 0.803387,0 c 1.01858,0 1.578082,0.3730012 1.578082,1.3915814 0,0.8894644 -0.616887,1.4059276 -1.506351,1.4059276 -0.760349,0 -1.334197,-0.286924 -1.979776,-0.932503 l -1.219427,1.1907346 c 0.760349,0.9181568 1.865006,1.4633124 3.328319,1.4633124 2.395815,0 3.701319,-1.362889 3.701319,-2.9840096 0,-1.5350434 -1.004234,-2.2523534 -2.209315,-2.3814692 1.190735,-0.3443088 1.893699,-1.1333498 1.893699,-2.3097382 0,-1.362889 -1.13335,-2.4675464 -3.227895,-2.4675464 z" /><path
         id="path134"
         style=""
         d="m 29.854441,-9.898878 c -2.381469,0 -3.658281,1.8076212 -3.658281,5.0642086 0,3.2422412 1.276812,5.0785548 3.658281,5.0785548 2.38147,0 3.658281,-1.8363136 3.658281,-5.0785548 0,-3.2565874 -1.276811,-5.0642086 -3.658281,-5.0642086 z m 0,1.6785054 c 0.932503,0 1.334197,0.7460024 1.334197,3.3857032 0,2.6253546 -0.401694,3.4000494 -1.334197,3.4000494 -0.946849,0 -1.334196,-0.8320796 -1.334196,-3.4000494 0,-2.5679698 0.387347,-3.3857032 1.334196,-3.3857032 z" /></g></g></svg>