<?xml version="1.0" encoding="utf-8" standalone="no"?> 
<?xml-stylesheet href="pruvodce.css" type="text/css"?> 
<svg xmlns="http://www.w3.org/2000/svg" xmlns:xlink="http://www.w3.org/1999/xlink" width="348.51137pt" height="237.60007pt" viewBox="2.75 -283.80003 348.51137 237.60007 "> 
<g transform="translate(0, -46.19997 ) scale(1,-1) translate(0,283.80003 )"> 
<g>
 <g stroke="rgb(0.0%,0.0%,0.0%)">
 <g fill="rgb(0.0%,0.0%,0.0%)">
 <g stroke-width="0.4pt">
 <g>
 <g stroke="rgb(0.0%,0.0%,0.0%)">
 <g fill="rgb(100.0%,100.0%,100.0%)">
 <g fill="rgb(100.0%,100.0%,100.0%)">
 <path d=" M  3.30003 -47.30003 L  3.30003 -283.25 L  348.69997 -283.25 L  348.69997 -47.30003 Z  " style="stroke:none"/>
 <g stroke-width="1.10007pt">
 <g stroke-dasharray="none" stroke-dashoffset="0.0pt">
 <g stroke-dasharray="none" stroke-dashoffset="0.0pt">
 <g stroke-linejoin="miter">
 <g stroke="rgb(0.0%,0.0%,0.0%)">
 <path d=" M  3.30003 -47.30003 L  3.30003 -283.25 L  348.69997 -283.25 L  348.69997 -47.30003 Z  " style="fill:none"/>
 <g stroke="rgb(0.0%,0.0%,0.0%)">
 <g>
 <g>
 <g transform="matrix(1.0,0.0,0.0,1.0,176.0,-168.40997)">
 <g fill="rgb(0.0%,0.0%,0.0%)">
 <text style="stroke:none" transform="scale(1,-1) translate(0.0,0)" text-anchor="middle"  font-size="10"> 
</text> 
</g>
 </g>
 </g>
 </g>
 <g fill="rgb(100.0%,100.0%,100.0%)">
 <path d=" M  67.10007 -94.60007 L  67.10007 -227.69997 L  168.30003 -227.69997 L  168.30003 -94.60007 Z  " style="stroke:none"/>
 <g stroke-width="1.10007pt">
 <g stroke-dasharray="none" stroke-dashoffset="0.0pt">
 <g stroke-dasharray="none" stroke-dashoffset="0.0pt">
 <g stroke-linejoin="miter">
 <g stroke="rgb(0.0%,0.0%,0.0%)">
 <path d=" M  67.10007 -94.60007 L  67.10007 -227.69997 L  168.30003 -227.69997 L  168.30003 -94.60007 Z  " style="fill:none"/>
 <g stroke="rgb(0.0%,0.0%,0.0%)">
 <g>
 <g>
 <g transform="matrix(1.0,0.0,0.0,1.0,102.06079,-167.72934)">
 <g fill="rgb(0.0%,0.0%,0.0%)">
 <text style="stroke:none" transform="scale(1,-1) translate(15.63918,0)" text-anchor="middle"  font-size="10"> 
Dvorek</text> 
</g>
 </g>
 </g>
 </g>
 <g fill="rgb(100.0%,100.0%,100.0%)">
 <path d=" M  168.85007 -47.85007 L  168.85007 -227.69997 L  265.64993 -227.69997 L  265.64993 -47.85007 Z  " style="stroke:none"/>
 <g stroke-width="1.10007pt">
 <g stroke-dasharray="none" stroke-dashoffset="0.0pt">
 <g stroke-dasharray="none" stroke-dashoffset="0.0pt">
 <g stroke-linejoin="miter">
 <g stroke="rgb(0.0%,0.0%,0.0%)">
 <path d=" M  168.85007 -47.85007 L  168.85007 -227.69997 L  265.64993 -227.69997 L  265.64993 -47.85007 Z  " style="fill:none"/>
 <g stroke="rgb(0.0%,0.0%,0.0%)">
 <g>
 <g>
 <g transform="matrix(1.0,0.0,0.0,1.0,206.97227,-144.35434)">
 <g fill="rgb(0.0%,0.0%,0.0%)">
 <text style="stroke:none" transform="scale(1,-1) translate(10.27773,0)" text-anchor="middle"  font-size="10"> 
Aula</text> 
</g>
 </g>
 </g>
 </g>
 <g stroke-width="1.10007pt">
 <g stroke-dasharray="none" stroke-dashoffset="0.0pt">
 <g stroke-dasharray="none" stroke-dashoffset="0.0pt">
 <g stroke-linecap="butt">
 <g stroke-linejoin="miter">
 <g stroke-width="1.10007pt">
 <g stroke-linecap="butt">
 <g stroke-linejoin="miter">
 <g stroke-dasharray="none" stroke-dashoffset="0.0pt">
 <g fill="rgb(100.0%,100.0%,100.0%)">
 <path d=" M  132.0 -194.14993 C  132.0 -198.40256 128.55266 -201.8499 124.30003 -201.8499 C  120.04741 -201.8499 116.60007 -198.40256 116.60007 -194.14993 C  116.60007 -189.89731 120.04741 -186.44997 124.30003 -186.44997 C  128.55266 -186.44997 132.0 -189.89731 132.0 -194.14993 Z M  124.30003 -194.14993  " style="stroke:none"/>
 <g stroke="rgb(0.0%,0.0%,0.0%)">
 <path d=" M  132.0 -194.14993 C  132.0 -198.40256 128.55266 -201.8499 124.30003 -201.8499 C  120.04741 -201.8499 116.60007 -198.40256 116.60007 -194.14993 C  116.60007 -189.89731 120.04741 -186.44997 124.30003 -186.44997 C  128.55266 -186.44997 132.0 -189.89731 132.0 -194.14993 Z M  124.30003 -194.14993  " style="fill:none"/>
 <g stroke-linecap="butt">
 <g stroke-linejoin="miter">
 <g stroke-dasharray="none" stroke-dashoffset="0.0pt">
 <g stroke="rgb(0.0%,0.0%,0.0%)">
 <path d=" M  124.30003 -186.44997 L  124.30003 -201.85007  " style="fill:none"/>
 <g stroke-linecap="butt">
 <g stroke-linejoin="miter">
 <g stroke-dasharray="none" stroke-dashoffset="0.0pt">
 <g stroke="rgb(0.0%,0.0%,0.0%)">
 <path d=" M  116.60007 -194.14993 L  132.0 -194.14993  " style="fill:none"/>
 <g stroke-width="1.10007pt">
 <g stroke-dasharray="none" stroke-dashoffset="0.0pt">
 <g stroke-dasharray="none" stroke-dashoffset="0.0pt">
 <g stroke-linecap="butt">
 <g stroke-linejoin="miter">
 <g stroke-width="1.10007pt">
 <g stroke-linecap="butt">
 <g stroke-linejoin="miter">
 <g stroke-dasharray="none" stroke-dashoffset="0.0pt">
 <g fill="rgb(100.0%,100.0%,100.0%)">
 <path d=" M  130.3499 -128.97507 C  130.3499 -132.77206 127.1488 -135.85007 123.19997 -135.85007 C  119.25113 -135.85007 116.05003 -132.77206 116.05003 -128.97507 C  116.05003 -125.17807 119.25113 -122.10007 123.19997 -122.10007 C  127.1488 -122.10007 130.3499 -125.17807 130.3499 -128.97507 Z M  123.19997 -128.97507  " style="stroke:none"/>
 <g stroke="rgb(0.0%,0.0%,0.0%)">
 <path d=" M  130.3499 -128.97507 C  130.3499 -132.77206 127.1488 -135.85007 123.19997 -135.85007 C  119.25113 -135.85007 116.05003 -132.77206 116.05003 -128.97507 C  116.05003 -125.17807 119.25113 -122.10007 123.19997 -122.10007 C  127.1488 -122.10007 130.3499 -125.17807 130.3499 -128.97507 Z M  123.19997 -128.97507  " style="fill:none"/>
 <g stroke-linecap="butt">
 <g stroke-linejoin="miter">
 <g stroke-dasharray="none" stroke-dashoffset="0.0pt">
 <g stroke="rgb(0.0%,0.0%,0.0%)">
 <path d=" M  123.19997 -122.10007 L  123.19997 -135.85007  " style="fill:none"/>
 <g stroke-linecap="butt">
 <g stroke-linejoin="miter">
 <g stroke-dasharray="none" stroke-dashoffset="0.0pt">
 <g stroke="rgb(0.0%,0.0%,0.0%)">
 <path d=" M  116.05003 -128.97507 L  130.35007 -128.97507  " style="fill:none"/>
 <g fill="rgb(100.0%,100.0%,100.0%)">
 <path d=" M  265.69122 -93.5 L  265.69122 -227.69997 L  348.69997 -227.69997 L  348.69997 -93.5 Z  " style="stroke:none"/>
 <g stroke-width="1.10007pt">
 <g stroke-dasharray="none" stroke-dashoffset="0.0pt">
 <g stroke-dasharray="none" stroke-dashoffset="0.0pt">
 <g stroke-linejoin="miter">
 <g stroke="rgb(0.0%,0.0%,0.0%)">
 <path d=" M  265.69122 -93.5 L  265.69122 -227.69997 L  348.69997 -227.69997 L  348.69997 -93.5 Z  " style="fill:none"/>
 <g stroke="rgb(0.0%,0.0%,0.0%)">
 <g>
 <g>
 <g transform="matrix(1.0,0.0,0.0,1.0,291.5565,-167.1793)">
 <g fill="rgb(0.0%,0.0%,0.0%)">
 <text style="stroke:none" transform="scale(1,-1) translate(15.63918,0)" text-anchor="middle"  font-size="10"> 
Dvorek</text> 
</g>
 </g>
 </g>
 </g>
 <g fill="rgb(100.0%,100.0%,100.0%)">
 <path d=" M  18.78255 -94.60007 L  18.78255 -227.14993 L  66.55003 -227.14993 L  66.55003 -94.60007 Z  " style="stroke:none"/>
 <g stroke-width="1.10007pt">
 <g stroke-dasharray="none" stroke-dashoffset="0.0pt">
 <g stroke-dasharray="none" stroke-dashoffset="0.0pt">
 <g stroke-linejoin="miter">
 <g stroke="rgb(0.0%,0.0%,0.0%)">
 <path d=" M  18.78255 -94.60007 L  18.78255 -227.14993 L  66.55003 -227.14993 L  66.55003 -94.60007 Z  " style="fill:none"/>
 <g stroke="rgb(0.0%,0.0%,0.0%)">
 <g>
 <g>
 <g transform="matrix(1.0,0.0,0.0,1.0,22.1107,-167.4544)">
 <g fill="rgb(0.0%,0.0%,0.0%)">
 <text style="stroke:none" transform="scale(1,-1) translate(20.55559,0)" text-anchor="middle"  font-size="10"> 
Studovna</text> 
</g>
 </g>
 </g>
 </g>
 <g stroke-width="1.10007pt">
 <g stroke-dasharray="none" stroke-dashoffset="0.0pt">
 <g stroke-dasharray="none" stroke-dashoffset="0.0pt">
 <g stroke-linejoin="miter">
 <g fill="rgb(100.0%,100.0%,100.0%)">
 <path d=" M  278.85007 -222.19997 L  278.85007 -223.85007 L  293.69997 -223.85007 L  293.69997 -222.19997 Z  " style="stroke:none"/>
 <g stroke="rgb(0.0%,0.0%,0.0%)">
 <path d=" M  278.85007 -222.19997 L  278.85007 -228.25 L  293.69997 -228.25 L  293.69997 -222.19997 Z  " style="fill:none"/>
 <g stroke-width="1.10007pt">
 <g stroke-dasharray="none" stroke-dashoffset="0.0pt">
 <g stroke-dasharray="none" stroke-dashoffset="0.0pt">
 <g stroke-linejoin="miter">
 <g fill="rgb(100.0%,100.0%,100.0%)">
 <path d=" M  322.30003 -94.05003 L  322.30003 -101.19997 L  334.94997 -101.19997 L  334.94997 -94.05003 Z  " style="stroke:none"/>
 <g stroke="rgb(0.0%,0.0%,0.0%)">
 <path d=" M  322.30003 -94.05003 L  322.30003 -101.19997 L  334.94997 -101.19997 L  334.94997 -94.05003 Z  " style="fill:none"/>
 <g stroke-width="1.10007pt">
 <g stroke-dasharray="none" stroke-dashoffset="0.0pt">
 <g stroke-dasharray="none" stroke-dashoffset="0.0pt">
 <g stroke-linejoin="miter">
 <g fill="rgb(100.0%,100.0%,100.0%)">
 <path d=" M  276.64993 -46.19997 L  276.64993 -51.14993 L  290.94997 -51.14993 L  290.94997 -46.19997 Z  " style="stroke:none"/>
 <g stroke="rgb(0.0%,0.0%,0.0%)">
 <path d=" M  276.64993 -47.30003 L  276.64993 -51.14993 L  290.94997 -51.14993 L  290.94997 -47.30003 Z  " style="fill:none"/>
 <g stroke-width="1.10007pt">
 <g stroke-dasharray="none" stroke-dashoffset="0.0pt">
 <g stroke-dasharray="none" stroke-dashoffset="0.0pt">
 <g stroke-linejoin="miter">
 <g fill="rgb(100.0%,100.0%,100.0%)">
 <path d=" M  47.30003 -95.14993 L  47.30003 -102.85007 L  58.85007 -102.85007 L  58.85007 -95.14993 Z  " style="stroke:none"/>
 <g stroke="rgb(0.0%,0.0%,0.0%)">
 <path d=" M  47.30003 -95.14993 L  47.30003 -102.85007 L  58.85007 -102.85007 L  58.85007 -95.14993 Z  " style="fill:none"/>
 <g stroke-width="1.10007pt">
 <g stroke-dasharray="none" stroke-dashoffset="0.0pt">
 <g stroke-dasharray="none" stroke-dashoffset="0.0pt">
 <g stroke-linejoin="miter">
 <g fill="rgb(100.0%,100.0%,100.0%)">
 <path d=" M  181.5 -277.19997 L  181.5 -283.25 L  202.39993 -283.25 L  202.39993 -277.19997 Z  " style="stroke:none"/>
 <g stroke="rgb(0.0%,0.0%,0.0%)">
 <path d=" M  181.5 -277.19997 L  181.5 -283.25 L  202.39993 -283.25 L  202.39993 -277.19997 Z  " style="fill:none"/>
 <g stroke="rgb(0.0%,0.0%,0.0%)">
 <g>
 <g>
 <g transform="matrix(1.0,0.0,0.0,1.0,179.88301,-165.27493)">
 <g fill="rgb(0.0%,0.0%,0.0%)">
 <text style="stroke:none" transform="scale(1,-1) translate(0.0,0)" text-anchor="middle"  font-size="10"> 
</text> 
</g>
 </g>
 </g>
 </g>
 <g stroke="rgb(0.0%,0.0%,0.0%)">
 <g>
 <g>
 <g transform="matrix(1.0,0.0,0.0,1.0,266.23308,-61.32222)">
 <g fill="rgb(0.0%,0.0%,0.0%)">
 <text style="stroke:none" transform="scale(1,-1) translate(40.84766,0)" text-anchor="middle"  font-size="10"> 
Výpůjční protokol</text> 
</g>
 </g>
 </g>
 </g>
 <g stroke="rgb(0.0%,0.0%,0.0%)">
 <g>
 <g>
 <g transform="matrix(1.0,0.0,0.0,1.0,152.38301,-272.52219)">
 <g fill="rgb(0.0%,0.0%,0.0%)">
 <text style="stroke:none" transform="scale(1,-1) translate(54.58363,0)" text-anchor="middle"  font-size="10"> 
Hlavní vchod do budovy</text> 
</g>
 </g>
 </g>
 </g>
 <g stroke-width="1.10007pt">
 <g stroke-dasharray="none" stroke-dashoffset="0.0pt">
 <g stroke-dasharray="none" stroke-dashoffset="0.0pt">
 <g stroke-linejoin="miter">
 <g fill="rgb(100.0%,100.0%,100.0%)">
 <path d=" M  85.25 -278.30003 L  85.25 -282.14993 L  105.05003 -282.14993 L  105.05003 -278.30003 Z  " style="stroke:none"/>
 <g stroke="rgb(0.0%,0.0%,0.0%)">
 <path d=" M  85.25 -278.30003 L  85.25 -283.25 L  105.05003 -283.25 L  105.05003 -278.30003 Z  " style="fill:none"/>
 <g stroke="rgb(0.0%,0.0%,0.0%)">
 <g>
 <g>
 <g transform="matrix(1.0,0.0,0.0,1.0,85.28294,-274.5943)">
 <g fill="rgb(0.0%,0.0%,0.0%)">
 <text style="stroke:none" transform="scale(1,-1) translate(13.33347,0)" text-anchor="middle"  font-size="10"> 
Výtah</text> 
</g>
 </g>
 </g>
 </g>
 </g>
 </g>
 </g>
 </g>
 </g>
 </g>
 </g>
 </g>
 </g>
 </g>
 </g>
 </g>
 </g>
 </g>
 </g>
 </g>
 </g>
 </g>
 </g>
 </g>
 </g>
 </g>
 </g>
 </g>
 </g>
 </g>
 </g>
 </g>
 </g>
 </g>
 </g>
 </g>
 </g>
 </g>
 </g>
 </g>
 </g>
 </g>
 </g>
 </g>
 </g>
 </g>
 </g>
 </g>
 </g>
 </g>
 </g>
 </g>
 </g>
 </g>
 </g>
 </g>
 </g>
 </g>
 </g>
 </g>
 </g>
 </g>
 </g>
 </g>
 </g>
 </g>
 </g>
 </g>
 </g>
 </g>
 </g>
 </g>
 </g>
 </g>
 </g>
 </g>
 </g>
 </g>
 </g>
 </g>
 </g>
 </g>
 </g>
 </g>
 </g>
 </g>
 </g>
 </g>
 </g>
 </g>
 </g>
 </g>
 </g>
 </g>
 </g>
 </g>
 </g>
 </g>
 </g>
 </g>
 </g>
 </g>
 </g>
 </g>
 </g>
 </g>
 </g>
 </g>
 </g>
 </g>
 </g>
 </g>
 </g>
 </g>
 </g>
 </g>
 </g>
 </g>
 </g>
 </g>
 </g>
 </g>
 </g>
 </g>
 
                                                                                                         </g> 
</svg> 
