<?xml version="1.0" standalone="no"?>
<!DOCTYPE svg PUBLIC "-//W3C//DTD SVG 20010904//EN"
 "http://www.w3.org/TR/2001/REC-SVG-20010904/DTD/svg10.dtd">
<svg version="1.0" xmlns="http://www.w3.org/2000/svg"
 width="700.000000pt" height="700.000000pt" viewBox="0 0 700.000000 700.000000"
 preserveAspectRatio="xMidYMid meet">
<metadata>
Created by potrace 1.11, written by Peter Selinger 2001-2013
</metadata>
<g transform="translate(0.000000,700.000000) scale(0.100000,-0.100000)"
fill="#000000" stroke="none">
<path d="M1070 6980 c-74 -10 -174 -27 -222 -39 -48 -11 -99 -23 -113 -25 -14
-3 -86 -25 -160 -50 -152 -52 -340 -138 -480 -221 l-95 -56 0 -3294 0 -3295
52 33 c183 112 385 204 583 265 171 53 322 85 455 98 30 3 66 7 80 10 30 6
397 6 425 1 11 -3 52 -8 90 -12 55 -6 275 -47 365 -69 81 -20 182 -49 390
-111 211 -63 484 -139 539 -150 271 -54 326 -60 531 -60 148 0 235 7 331 25
30 6 68 13 84 16 17 3 46 9 65 14 19 5 46 11 60 14 56 10 240 61 495 137 409
122 657 178 860 194 90 8 357 8 415 1 25 -4 65 -8 90 -10 25 -2 72 -9 105 -15
33 -6 74 -13 92 -16 70 -11 263 -65 353 -98 181 -66 307 -126 454 -215 37 -23
72 -42 76 -42 5 0 9 1479 9 3288 l0 3287 -57 37 c-265 171 -629 302 -982 354
-124 19 -468 25 -595 11 -110 -11 -148 -17 -175 -23 -14 -3 -36 -8 -50 -10
-14 -2 -36 -7 -50 -10 -14 -3 -38 -8 -55 -11 -16 -3 -55 -12 -85 -20 -30 -8
-86 -23 -125 -33 -38 -10 -131 -37 -205 -60 -133 -41 -265 -80 -285 -84 -5 -1
-37 -10 -69 -20 -159 -47 -387 -97 -508 -111 -27 -3 -69 -8 -95 -11 -52 -6
-286 -6 -345 1 -118 13 -242 34 -333 57 -44 11 -91 22 -105 25 -25 4 -214 57
-395 111 -55 16 -156 46 -225 66 -69 20 -138 40 -155 46 -35 11 -323 70 -375
76 -19 3 -48 7 -65 10 -16 3 -127 6 -245 8 -165 3 -247 -1 -350 -14z m725
-384 c92 -9 228 -36 355 -68 155 -40 148 -38 380 -108 208 -62 451 -124 527
-134 22 -3 52 -7 65 -10 73 -16 330 -23 398 -12 14 3 47 7 74 11 27 3 52 8 55
9 3 2 29 6 56 10 43 5 69 11 145 30 16 5 95 24 121 30 9 3 49 14 89 26 40 12
80 23 89 26 9 2 77 22 151 45 157 48 338 96 395 105 22 3 42 7 45 9 3 2 26 6
50 10 25 3 52 8 60 10 90 23 580 24 619 1 3 -2 26 -7 51 -10 64 -9 102 -16
125 -23 11 -4 25 -8 30 -9 44 -8 179 -51 262 -83 119 -47 197 -85 315 -154
l87 -51 0 -2798 0 -2798 -22 12 c-12 6 -49 28 -82 48 -173 105 -462 213 -670
250 -38 7 -79 14 -90 17 -98 18 -436 24 -560 9 -169 -21 -357 -65 -640 -151
-184 -55 -424 -122 -475 -131 -14 -3 -32 -7 -40 -9 -8 -2 -31 -7 -50 -10 -19
-3 -64 -10 -100 -17 -107 -20 -403 -16 -530 6 -14 3 -38 7 -55 9 -95 15 -240
53 -559 148 -452 135 -614 164 -896 164 -231 -1 -363 -17 -562 -70 -157 -42
-415 -148 -496 -203 -15 -10 -48 -31 -74 -46 l-48 -27 0 2799 0 2800 93 54
c109 64 199 108 322 155 97 37 275 89 340 98 22 4 58 10 80 15 22 5 76 12 120
15 44 4 81 8 83 10 5 5 306 -2 367 -9z"/>
</g>
</svg>
